<mxfile host="app.diagrams.net" modified="2023-12-18T11:30:22.200Z" agent="Mozilla/5.0 (Windows NT 10.0; Win64; x64) AppleWebKit/537.36 (KHTML, like Gecko) Chrome/120.0.0.0 Safari/537.36" etag="2-XUvSGvfMFSiFnG_T6N" version="22.1.11" type="github">
  <diagram name="Page-1" id="e3a06f82-3646-2815-327d-82caf3d4e204">
    <mxGraphModel dx="2074" dy="1140" grid="1" gridSize="10" guides="1" tooltips="1" connect="1" arrows="1" fold="1" page="1" pageScale="1.5" pageWidth="1169" pageHeight="826" background="none" math="0" shadow="0">
      <root>
        <mxCell id="0" style=";html=1;" />
        <mxCell id="1" style=";html=1;" parent="0" />
        <mxCell id="otNfWIO8C421rpofp8Mj-5" value="" style="shadow=0;dashed=0;html=1;strokeColor=none;fillColor=#4495D1;labelPosition=center;verticalLabelPosition=bottom;verticalAlign=top;align=center;outlineConnect=0;shape=mxgraph.veeam.magnifying_glass;pointerEvents=1;" parent="1" vertex="1">
          <mxGeometry x="1070" y="465.75" width="350" height="312" as="geometry" />
        </mxCell>
        <mxCell id="6a7d8f32e03d9370-59" value="LB / WAF" style="whiteSpace=wrap;html=1;fillColor=#EDEDED;fontSize=14;strokeColor=none;verticalAlign=top;" parent="1" vertex="1">
          <mxGeometry x="599" y="98" width="280" height="1010" as="geometry" />
        </mxCell>
        <mxCell id="6a7d8f32e03d9370-58" value="End User" style="whiteSpace=wrap;html=1;fillColor=#dae8fc;fontSize=14;strokeColor=none;verticalAlign=top;" parent="1" vertex="1">
          <mxGeometry x="250" y="370" width="150" height="530" as="geometry" />
        </mxCell>
        <mxCell id="6a7d8f32e03d9370-36" style="edgeStyle=none;rounded=0;html=1;startSize=10;endSize=10;jettySize=auto;orthogonalLoop=1;fontSize=14;endArrow=none;endFill=0;strokeWidth=2;entryX=0.31;entryY=0.8;entryDx=0;entryDy=0;entryPerimeter=0;" parent="1" source="6a7d8f32e03d9370-1" target="otNfWIO8C421rpofp8Mj-76" edge="1">
          <mxGeometry relative="1" as="geometry" />
        </mxCell>
        <mxCell id="6a7d8f32e03d9370-1" value="Client" style="verticalLabelPosition=bottom;aspect=fixed;html=1;verticalAlign=top;strokeColor=none;shape=mxgraph.citrix.laptop_2;fillColor=#66B2FF;gradientColor=#0066CC;fontSize=14;" parent="1" vertex="1">
          <mxGeometry x="262.9999999999999" y="780" width="116" height="86.5" as="geometry" />
        </mxCell>
        <mxCell id="6a7d8f32e03d9370-37" style="edgeStyle=none;rounded=0;html=1;startSize=10;endSize=10;jettySize=auto;orthogonalLoop=1;fontSize=14;endArrow=none;endFill=0;strokeWidth=2;entryX=0.07;entryY=0.4;entryDx=0;entryDy=0;entryPerimeter=0;" parent="1" source="6a7d8f32e03d9370-6" target="otNfWIO8C421rpofp8Mj-76" edge="1">
          <mxGeometry relative="1" as="geometry" />
        </mxCell>
        <mxCell id="6a7d8f32e03d9370-6" value="Client" style="verticalLabelPosition=bottom;aspect=fixed;html=1;verticalAlign=top;strokeColor=none;shape=mxgraph.citrix.pda;fillColor=#66B2FF;gradientColor=#0066CC;fontSize=14;" parent="1" vertex="1">
          <mxGeometry x="306.50000000000006" y="646" width="30" height="61" as="geometry" />
        </mxCell>
        <mxCell id="6a7d8f32e03d9370-39" style="edgeStyle=none;rounded=0;html=1;startSize=10;endSize=10;jettySize=auto;orthogonalLoop=1;fontSize=14;endArrow=none;endFill=0;strokeWidth=2;exitX=0.875;exitY=0.484;exitDx=0;exitDy=0;exitPerimeter=0;" parent="1" source="6a7d8f32e03d9370-14" target="6a7d8f32e03d9370-21" edge="1">
          <mxGeometry relative="1" as="geometry">
            <mxPoint x="737" y="846" as="targetPoint" />
            <mxPoint x="713" y="858.1255144032923" as="sourcePoint" />
          </mxGeometry>
        </mxCell>
        <mxCell id="6a7d8f32e03d9370-51" style="edgeStyle=none;rounded=0;html=1;startSize=10;endSize=10;jettySize=auto;orthogonalLoop=1;fontSize=14;endArrow=none;endFill=0;strokeWidth=2;" parent="1" source="6a7d8f32e03d9370-13" target="6a7d8f32e03d9370-15" edge="1">
          <mxGeometry relative="1" as="geometry" />
        </mxCell>
        <mxCell id="6a7d8f32e03d9370-13" value="" style="verticalLabelPosition=bottom;aspect=fixed;html=1;verticalAlign=top;strokeColor=none;shape=mxgraph.citrix.router;fillColor=#66B2FF;gradientColor=#0066CC;fontSize=14;" parent="1" vertex="1">
          <mxGeometry x="980" y="677" width="55" height="36.5" as="geometry" />
        </mxCell>
        <mxCell id="6a7d8f32e03d9370-14" value="" style="verticalLabelPosition=bottom;aspect=fixed;html=1;verticalAlign=top;strokeColor=none;shape=mxgraph.citrix.xenclient_synchronizer;fillColor=#CCCCCC;gradientColor=#000000;gradientDirection=south;fontSize=14;" parent="1" vertex="1">
          <mxGeometry x="629.9999999999999" y="649.75" width="76" height="91" as="geometry" />
        </mxCell>
        <mxCell id="6a7d8f32e03d9370-15" value="WebApp + EJB&lt;br&gt;(JEE Server)" style="verticalLabelPosition=top;aspect=fixed;html=1;verticalAlign=bottom;strokeColor=none;shape=mxgraph.citrix.cache_server;fillColor=#66B2FF;gradientColor=#0066CC;fontSize=14;labelPosition=center;align=center;" parent="1" vertex="1">
          <mxGeometry x="1170" y="555.75" width="71" height="97.5" as="geometry" />
        </mxCell>
        <mxCell id="6a7d8f32e03d9370-48" style="edgeStyle=none;rounded=0;html=1;startSize=10;endSize=10;jettySize=auto;orthogonalLoop=1;fontSize=14;endArrow=none;endFill=0;strokeWidth=2;" parent="1" source="6a7d8f32e03d9370-21" target="6a7d8f32e03d9370-13" edge="1">
          <mxGeometry relative="1" as="geometry" />
        </mxCell>
        <mxCell id="6a7d8f32e03d9370-21" value="" style="verticalLabelPosition=bottom;aspect=fixed;html=1;verticalAlign=top;strokeColor=none;shape=mxgraph.citrix.firewall;fillColor=#66B2FF;gradientColor=#0066CC;fontSize=14;" parent="1" vertex="1">
          <mxGeometry x="794" y="646" width="75" height="93" as="geometry" />
        </mxCell>
        <mxCell id="6a7d8f32e03d9370-23" value="" style="verticalLabelPosition=bottom;aspect=fixed;html=1;verticalAlign=top;strokeColor=none;shape=mxgraph.citrix.home_office;fillColor=#66B2FF;gradientColor=#0066CC;fontSize=14;" parent="1" vertex="1">
          <mxGeometry x="285" y="400.25" width="80" height="55.5" as="geometry" />
        </mxCell>
        <mxCell id="otNfWIO8C421rpofp8Mj-1" value="Client" style="verticalLabelPosition=bottom;aspect=fixed;html=1;verticalAlign=top;strokeColor=none;shape=mxgraph.citrix.desktop;fillColor=#66B2FF;gradientColor=#0066CC;fontSize=14;" parent="1" vertex="1">
          <mxGeometry x="289.99999999999994" y="492.75" width="89" height="98" as="geometry" />
        </mxCell>
        <mxCell id="otNfWIO8C421rpofp8Mj-4" style="edgeStyle=none;rounded=0;html=1;startSize=10;endSize=10;jettySize=auto;orthogonalLoop=1;fontSize=14;endArrow=none;endFill=0;strokeWidth=2;exitX=0.83;exitY=0.552;exitDx=0;exitDy=0;exitPerimeter=0;entryX=0.013;entryY=0.554;entryDx=0;entryDy=0;entryPerimeter=0;" parent="1" source="otNfWIO8C421rpofp8Mj-75" target="otNfWIO8C421rpofp8Mj-25" edge="1">
          <mxGeometry relative="1" as="geometry">
            <mxPoint x="347" y="685" as="sourcePoint" />
            <mxPoint x="580" y="690" as="targetPoint" />
          </mxGeometry>
        </mxCell>
        <mxCell id="otNfWIO8C421rpofp8Mj-17" value="" style="rounded=0;whiteSpace=wrap;html=1;fillColor=#dae8fc;strokeColor=#6c8ebf;" parent="1" vertex="1">
          <mxGeometry x="1630" y="186.75" width="1030" height="790" as="geometry" />
        </mxCell>
        <mxCell id="otNfWIO8C421rpofp8Mj-66" style="edgeStyle=orthogonalEdgeStyle;rounded=0;orthogonalLoop=1;jettySize=auto;html=1;exitX=1;exitY=0.5;exitDx=0;exitDy=0;entryX=0.125;entryY=0.228;entryDx=0;entryDy=0;entryPerimeter=0;" parent="1" target="otNfWIO8C421rpofp8Mj-38" edge="1">
          <mxGeometry relative="1" as="geometry">
            <mxPoint x="2267" y="630" as="targetPoint" />
            <mxPoint x="2050" y="526" as="sourcePoint" />
            <Array as="points">
              <mxPoint x="2050" y="527" />
              <mxPoint x="2250" y="527" />
              <mxPoint x="2250" y="644" />
            </Array>
          </mxGeometry>
        </mxCell>
        <mxCell id="otNfWIO8C421rpofp8Mj-18" value="REST WS" style="rounded=0;whiteSpace=wrap;html=1;fillColor=#d5e8d4;strokeColor=#82b366;" parent="1" vertex="1">
          <mxGeometry x="2000" y="485.75" width="120" height="60" as="geometry" />
        </mxCell>
        <mxCell id="otNfWIO8C421rpofp8Mj-55" style="edgeStyle=orthogonalEdgeStyle;rounded=0;orthogonalLoop=1;jettySize=auto;html=1;exitX=1;exitY=0.5;exitDx=0;exitDy=0;entryX=0;entryY=0.5;entryDx=0;entryDy=0;" parent="1" target="otNfWIO8C421rpofp8Mj-38" edge="1">
          <mxGeometry relative="1" as="geometry">
            <mxPoint x="2120" y="830.875" as="sourcePoint" />
            <mxPoint x="2290" y="720.5" as="targetPoint" />
            <Array as="points">
              <mxPoint x="2250" y="831" />
              <mxPoint x="2250" y="666" />
            </Array>
          </mxGeometry>
        </mxCell>
        <mxCell id="otNfWIO8C421rpofp8Mj-58" style="edgeStyle=orthogonalEdgeStyle;rounded=0;orthogonalLoop=1;jettySize=auto;html=1;exitX=1;exitY=0.5;exitDx=0;exitDy=0;entryX=0;entryY=0.5;entryDx=0;entryDy=0;" parent="1" source="otNfWIO8C421rpofp8Mj-19" target="otNfWIO8C421rpofp8Mj-34" edge="1">
          <mxGeometry relative="1" as="geometry">
            <Array as="points">
              <mxPoint x="2170" y="744.75" />
              <mxPoint x="2170" y="405.75" />
            </Array>
          </mxGeometry>
        </mxCell>
        <mxCell id="UHXSH73aIZiqOZ1Eyl-G-4" style="edgeStyle=orthogonalEdgeStyle;rounded=0;orthogonalLoop=1;jettySize=auto;html=1;exitX=1;exitY=0.25;exitDx=0;exitDy=0;entryX=0;entryY=0.5;entryDx=0;entryDy=0;dashed=1" parent="1" source="otNfWIO8C421rpofp8Mj-19" target="1ymfPKmcFopbmhQbIeXV-2" edge="1">
          <mxGeometry relative="1" as="geometry">
            <Array as="points">
              <mxPoint x="2120" y="698" />
              <mxPoint x="2160" y="698" />
              <mxPoint x="2160" y="560" />
              <mxPoint x="1980" y="560" />
              <mxPoint x="1980" y="423" />
            </Array>
          </mxGeometry>
        </mxCell>
        <mxCell id="u5oiCscIOgwdw_EkdSBx-4" style="edgeStyle=orthogonalEdgeStyle;rounded=0;orthogonalLoop=1;jettySize=auto;html=1;exitX=1;exitY=0.5;exitDx=0;exitDy=0;entryX=0;entryY=0.75;entryDx=0;entryDy=0;" parent="1" source="otNfWIO8C421rpofp8Mj-19" target="otNfWIO8C421rpofp8Mj-60" edge="1">
          <mxGeometry relative="1" as="geometry" />
        </mxCell>
        <mxCell id="otNfWIO8C421rpofp8Mj-19" value="Server-side&lt;br&gt;WebApp&lt;br&gt;(Tapestry)" style="rounded=0;whiteSpace=wrap;html=1;fillColor=#fff2cc;strokeColor=#d6b656;" parent="1" vertex="1">
          <mxGeometry x="2000" y="590" width="120" height="372.25" as="geometry" />
        </mxCell>
        <mxCell id="otNfWIO8C421rpofp8Mj-24" style="edgeStyle=none;rounded=0;html=1;startSize=10;endSize=10;jettySize=auto;orthogonalLoop=1;fontSize=14;endArrow=none;endFill=0;strokeWidth=2;exitX=0.875;exitY=0.484;exitDx=0;exitDy=0;exitPerimeter=0;" parent="1" source="otNfWIO8C421rpofp8Mj-25" target="otNfWIO8C421rpofp8Mj-26" edge="1">
          <mxGeometry relative="1" as="geometry">
            <mxPoint x="727" y="631" as="targetPoint" />
            <mxPoint x="703" y="643.1255144032923" as="sourcePoint" />
          </mxGeometry>
        </mxCell>
        <mxCell id="otNfWIO8C421rpofp8Mj-25" value="" style="verticalLabelPosition=bottom;aspect=fixed;html=1;verticalAlign=top;strokeColor=none;shape=mxgraph.citrix.xenclient_synchronizer;fillColor=#CCCCCC;gradientColor=#000000;gradientDirection=south;fontSize=14;" parent="1" vertex="1">
          <mxGeometry x="639.9999999999999" y="496.25" width="76" height="91" as="geometry" />
        </mxCell>
        <mxCell id="otNfWIO8C421rpofp8Mj-26" value="" style="verticalLabelPosition=bottom;aspect=fixed;html=1;verticalAlign=top;strokeColor=none;shape=mxgraph.citrix.firewall;fillColor=#66B2FF;gradientColor=#0066CC;fontSize=14;" parent="1" vertex="1">
          <mxGeometry x="794" y="497.75" width="75" height="93" as="geometry" />
        </mxCell>
        <mxCell id="aG5nzeYbMwQF4hwIKUs0-4" style="edgeStyle=orthogonalEdgeStyle;rounded=0;orthogonalLoop=1;jettySize=auto;html=1;exitX=1;exitY=0.25;exitDx=0;exitDy=0;entryX=0;entryY=0.25;entryDx=0;entryDy=0;" edge="1" parent="1" source="otNfWIO8C421rpofp8Mj-27" target="aG5nzeYbMwQF4hwIKUs0-2">
          <mxGeometry relative="1" as="geometry" />
        </mxCell>
        <mxCell id="otNfWIO8C421rpofp8Mj-27" value="SOAP WS" style="rounded=0;whiteSpace=wrap;html=1;fillColor=#ffe6cc;strokeColor=#d79b00;" parent="1" vertex="1">
          <mxGeometry x="2000" y="337.75" width="120" height="32.25" as="geometry" />
        </mxCell>
        <mxCell id="otNfWIO8C421rpofp8Mj-52" style="edgeStyle=orthogonalEdgeStyle;rounded=0;orthogonalLoop=1;jettySize=auto;html=1;exitX=1;exitY=0.5;exitDx=0;exitDy=0;entryX=0;entryY=0.5;entryDx=0;entryDy=0;" parent="1" source="otNfWIO8C421rpofp8Mj-28" target="otNfWIO8C421rpofp8Mj-31" edge="1">
          <mxGeometry relative="1" as="geometry" />
        </mxCell>
        <mxCell id="otNfWIO8C421rpofp8Mj-28" value="SOAP WS" style="rounded=0;whiteSpace=wrap;html=1;fillColor=#ffe6cc;strokeColor=#d79b00;" parent="1" vertex="1">
          <mxGeometry x="2000" y="265.75" width="120" height="60" as="geometry" />
        </mxCell>
        <mxCell id="otNfWIO8C421rpofp8Mj-65" style="edgeStyle=orthogonalEdgeStyle;rounded=0;orthogonalLoop=1;jettySize=auto;html=1;exitX=1;exitY=0.5;exitDx=0;exitDy=0;entryX=0;entryY=0.5;entryDx=0;entryDy=0;" parent="1" source="otNfWIO8C421rpofp8Mj-31" target="otNfWIO8C421rpofp8Mj-62" edge="1">
          <mxGeometry relative="1" as="geometry" />
        </mxCell>
        <mxCell id="otNfWIO8C421rpofp8Mj-31" value="Plain Component&lt;br style=&quot;border-color: var(--border-color);&quot;&gt;(Spring)" style="shape=hexagon;perimeter=hexagonPerimeter2;whiteSpace=wrap;html=1;fixedSize=1;fillColor=#f8cecc;strokeColor=#b85450;" parent="1" vertex="1">
          <mxGeometry x="2290" y="275.75" width="120" height="80" as="geometry" />
        </mxCell>
        <mxCell id="otNfWIO8C421rpofp8Mj-59" style="edgeStyle=orthogonalEdgeStyle;rounded=0;orthogonalLoop=1;jettySize=auto;html=1;exitX=1;exitY=0.5;exitDx=0;exitDy=0;entryX=0;entryY=0.5;entryDx=0;entryDy=0;" parent="1" source="otNfWIO8C421rpofp8Mj-32" target="otNfWIO8C421rpofp8Mj-37" edge="1">
          <mxGeometry relative="1" as="geometry" />
        </mxCell>
        <mxCell id="otNfWIO8C421rpofp8Mj-32" value="Plain Component&lt;br style=&quot;border-color: var(--border-color);&quot;&gt;(Spring)" style="shape=hexagon;perimeter=hexagonPerimeter2;whiteSpace=wrap;html=1;fixedSize=1;fillColor=#f8cecc;strokeColor=#b85450;" parent="1" vertex="1">
          <mxGeometry x="2290" y="455.75" width="120" height="80" as="geometry" />
        </mxCell>
        <mxCell id="otNfWIO8C421rpofp8Mj-50" style="edgeStyle=orthogonalEdgeStyle;rounded=0;orthogonalLoop=1;jettySize=auto;html=1;exitX=1;exitY=0.5;exitDx=0;exitDy=0;entryX=0;entryY=0.5;entryDx=0;entryDy=0;" parent="1" source="otNfWIO8C421rpofp8Mj-34" target="otNfWIO8C421rpofp8Mj-35" edge="1">
          <mxGeometry relative="1" as="geometry" />
        </mxCell>
        <mxCell id="otNfWIO8C421rpofp8Mj-34" value="Plain Component&lt;br style=&quot;border-color: var(--border-color);&quot;&gt;(Spring)" style="shape=hexagon;perimeter=hexagonPerimeter2;whiteSpace=wrap;html=1;fixedSize=1;fillColor=#f8cecc;strokeColor=#b85450;" parent="1" vertex="1">
          <mxGeometry x="2290" y="365.75" width="120" height="80" as="geometry" />
        </mxCell>
        <mxCell id="otNfWIO8C421rpofp8Mj-35" value="Plain Component&lt;br style=&quot;border-color: var(--border-color);&quot;&gt;(Spring)" style="shape=hexagon;perimeter=hexagonPerimeter2;whiteSpace=wrap;html=1;fixedSize=1;fillColor=#f8cecc;strokeColor=#b85450;" parent="1" vertex="1">
          <mxGeometry x="2500" y="365.75" width="120" height="80" as="geometry" />
        </mxCell>
        <mxCell id="otNfWIO8C421rpofp8Mj-48" style="edgeStyle=orthogonalEdgeStyle;rounded=0;orthogonalLoop=1;jettySize=auto;html=1;exitX=1;exitY=0.5;exitDx=0;exitDy=0;entryX=0;entryY=0.5;entryDx=0;entryDy=0;" parent="1" source="otNfWIO8C421rpofp8Mj-60" target="otNfWIO8C421rpofp8Mj-37" edge="1">
          <mxGeometry relative="1" as="geometry">
            <mxPoint x="2410" y="585.75" as="sourcePoint" />
            <Array as="points">
              <mxPoint x="2400" y="585.75" />
              <mxPoint x="2460" y="585.75" />
              <mxPoint x="2460" y="505.75" />
            </Array>
          </mxGeometry>
        </mxCell>
        <mxCell id="otNfWIO8C421rpofp8Mj-37" value="Plain Component&lt;br style=&quot;border-color: var(--border-color);&quot;&gt;(Spring)" style="shape=hexagon;perimeter=hexagonPerimeter2;whiteSpace=wrap;html=1;fixedSize=1;fillColor=#f8cecc;strokeColor=#b85450;" parent="1" vertex="1">
          <mxGeometry x="2510" y="465.75" width="120" height="80" as="geometry" />
        </mxCell>
        <mxCell id="otNfWIO8C421rpofp8Mj-47" style="edgeStyle=orthogonalEdgeStyle;rounded=0;orthogonalLoop=1;jettySize=auto;html=1;exitX=1;exitY=0.5;exitDx=0;exitDy=0;entryX=0;entryY=0.5;entryDx=0;entryDy=0;" parent="1" source="otNfWIO8C421rpofp8Mj-38" target="otNfWIO8C421rpofp8Mj-37" edge="1">
          <mxGeometry relative="1" as="geometry">
            <Array as="points">
              <mxPoint x="2460" y="665.75" />
              <mxPoint x="2460" y="505.75" />
            </Array>
          </mxGeometry>
        </mxCell>
        <mxCell id="otNfWIO8C421rpofp8Mj-38" value="Plain Component&lt;br style=&quot;border-color: var(--border-color);&quot;&gt;(Spring)" style="shape=hexagon;perimeter=hexagonPerimeter2;whiteSpace=wrap;html=1;fixedSize=1;fillColor=#f8cecc;strokeColor=#b85450;" parent="1" vertex="1">
          <mxGeometry x="2280" y="625.75" width="120" height="80" as="geometry" />
        </mxCell>
        <mxCell id="otNfWIO8C421rpofp8Mj-57" style="edgeStyle=orthogonalEdgeStyle;rounded=0;orthogonalLoop=1;jettySize=auto;html=1;entryX=0;entryY=0.5;entryDx=0;entryDy=0;" parent="1" target="otNfWIO8C421rpofp8Mj-32" edge="1">
          <mxGeometry relative="1" as="geometry">
            <Array as="points">
              <mxPoint x="2230" y="786" />
              <mxPoint x="2230" y="500" />
              <mxPoint x="2300" y="500" />
            </Array>
            <mxPoint x="2120" y="786" as="sourcePoint" />
            <mxPoint x="2300" y="468" as="targetPoint" />
          </mxGeometry>
        </mxCell>
        <mxCell id="otNfWIO8C421rpofp8Mj-60" value="Plain Component&lt;br&gt;(Spring)" style="shape=hexagon;perimeter=hexagonPerimeter2;whiteSpace=wrap;html=1;fixedSize=1;fillColor=#f8cecc;strokeColor=#b85450;" parent="1" vertex="1">
          <mxGeometry x="2290" y="551.75" width="120" height="60" as="geometry" />
        </mxCell>
        <mxCell id="otNfWIO8C421rpofp8Mj-62" value="Plain Component&lt;br&gt;(Spring)" style="shape=hexagon;perimeter=hexagonPerimeter2;whiteSpace=wrap;html=1;fixedSize=1;fillColor=#f8cecc;strokeColor=#b85450;" parent="1" vertex="1">
          <mxGeometry x="2500" y="285.75" width="120" height="60" as="geometry" />
        </mxCell>
        <mxCell id="otNfWIO8C421rpofp8Mj-16" value="ZOOM" style="endArrow=classic;html=1;rounded=0;entryX=0;entryY=0.5;entryDx=0;entryDy=0;" parent="1" edge="1">
          <mxGeometry x="-0.0016" width="50" height="50" relative="1" as="geometry">
            <mxPoint x="1420" y="602.66" as="sourcePoint" />
            <mxPoint x="1630" y="602.66" as="targetPoint" />
            <mxPoint as="offset" />
          </mxGeometry>
        </mxCell>
        <mxCell id="otNfWIO8C421rpofp8Mj-69" value="" style="edgeStyle=none;rounded=0;html=1;startSize=10;endSize=10;jettySize=auto;orthogonalLoop=1;fontSize=14;endArrow=none;endFill=0;strokeWidth=2;exitX=1.006;exitY=0.585;exitDx=0;exitDy=0;exitPerimeter=0;" parent="1" source="otNfWIO8C421rpofp8Mj-26" target="otNfWIO8C421rpofp8Mj-67" edge="1">
          <mxGeometry relative="1" as="geometry">
            <mxPoint x="870" y="434.5" as="sourcePoint" />
            <mxPoint x="971" y="434.5" as="targetPoint" />
          </mxGeometry>
        </mxCell>
        <mxCell id="otNfWIO8C421rpofp8Mj-67" value="" style="verticalLabelPosition=bottom;aspect=fixed;html=1;verticalAlign=top;strokeColor=none;shape=mxgraph.citrix.router;fillColor=#66B2FF;gradientColor=#0066CC;fontSize=14;" parent="1" vertex="1">
          <mxGeometry x="960" y="535.75" width="55" height="36.5" as="geometry" />
        </mxCell>
        <mxCell id="otNfWIO8C421rpofp8Mj-71" value="" style="edgeStyle=none;rounded=0;html=1;startSize=10;endSize=10;jettySize=auto;orthogonalLoop=1;fontSize=14;endArrow=none;endFill=0;strokeWidth=2;" parent="1" source="otNfWIO8C421rpofp8Mj-67" target="6a7d8f32e03d9370-15" edge="1">
          <mxGeometry width="50" height="50" relative="1" as="geometry">
            <mxPoint x="1280" y="820" as="sourcePoint" />
            <mxPoint x="1330" y="770" as="targetPoint" />
          </mxGeometry>
        </mxCell>
        <mxCell id="otNfWIO8C421rpofp8Mj-76" value="https://&lt;br&gt;web ps" style="ellipse;shape=cloud;whiteSpace=wrap;html=1;" parent="1" vertex="1">
          <mxGeometry x="430" y="646" width="120" height="80" as="geometry" />
        </mxCell>
        <mxCell id="otNfWIO8C421rpofp8Mj-78" style="edgeStyle=none;rounded=0;html=1;startSize=10;endSize=10;jettySize=auto;orthogonalLoop=1;fontSize=14;endArrow=none;endFill=0;strokeWidth=2;entryX=-0.006;entryY=0.389;entryDx=0;entryDy=0;entryPerimeter=0;exitX=0.875;exitY=0.5;exitDx=0;exitDy=0;exitPerimeter=0;" parent="1" source="otNfWIO8C421rpofp8Mj-76" target="6a7d8f32e03d9370-14" edge="1">
          <mxGeometry relative="1" as="geometry">
            <mxPoint x="534" y="658" as="sourcePoint" />
            <mxPoint x="620" y="530" as="targetPoint" />
          </mxGeometry>
        </mxCell>
        <mxCell id="otNfWIO8C421rpofp8Mj-79" value="" style="endArrow=classic;html=1;rounded=0;entryX=0.16;entryY=0.55;entryDx=0;entryDy=0;entryPerimeter=0;" parent="1" target="otNfWIO8C421rpofp8Mj-97" edge="1">
          <mxGeometry width="50" height="50" relative="1" as="geometry">
            <mxPoint x="1710" y="830" as="sourcePoint" />
            <mxPoint x="1760" y="765" as="targetPoint" />
          </mxGeometry>
        </mxCell>
        <mxCell id="otNfWIO8C421rpofp8Mj-101" value="WEB PS" style="edgeLabel;html=1;align=center;verticalAlign=middle;resizable=0;points=[];" parent="otNfWIO8C421rpofp8Mj-79" vertex="1" connectable="0">
          <mxGeometry x="-0.0754" y="-2" relative="1" as="geometry">
            <mxPoint x="1" as="offset" />
          </mxGeometry>
        </mxCell>
        <mxCell id="otNfWIO8C421rpofp8Mj-88" value="" style="endArrow=classic;html=1;rounded=0;entryX=0.16;entryY=0.55;entryDx=0;entryDy=0;entryPerimeter=0;" parent="1" target="otNfWIO8C421rpofp8Mj-90" edge="1">
          <mxGeometry width="50" height="50" relative="1" as="geometry">
            <mxPoint x="1680" y="370" as="sourcePoint" />
            <mxPoint x="1710" y="368" as="targetPoint" />
          </mxGeometry>
        </mxCell>
        <mxCell id="otNfWIO8C421rpofp8Mj-89" value="LPS" style="edgeLabel;html=1;align=center;verticalAlign=middle;resizable=0;points=[];" parent="otNfWIO8C421rpofp8Mj-88" vertex="1" connectable="0">
          <mxGeometry x="-0.3878" y="-3" relative="1" as="geometry">
            <mxPoint as="offset" />
          </mxGeometry>
        </mxCell>
        <mxCell id="otNfWIO8C421rpofp8Mj-92" style="edgeStyle=orthogonalEdgeStyle;rounded=0;orthogonalLoop=1;jettySize=auto;html=1;exitX=0.88;exitY=0.25;exitDx=0;exitDy=0;exitPerimeter=0;entryX=0;entryY=0.5;entryDx=0;entryDy=0;" parent="1" source="otNfWIO8C421rpofp8Mj-90" target="otNfWIO8C421rpofp8Mj-28" edge="1">
          <mxGeometry relative="1" as="geometry" />
        </mxCell>
        <mxCell id="otNfWIO8C421rpofp8Mj-94" style="edgeStyle=orthogonalEdgeStyle;rounded=0;orthogonalLoop=1;jettySize=auto;html=1;exitX=0.875;exitY=0.5;exitDx=0;exitDy=0;exitPerimeter=0;entryX=0;entryY=0.5;entryDx=0;entryDy=0;" parent="1" source="otNfWIO8C421rpofp8Mj-90" target="otNfWIO8C421rpofp8Mj-27" edge="1">
          <mxGeometry relative="1" as="geometry" />
        </mxCell>
        <mxCell id="otNfWIO8C421rpofp8Mj-90" value="LPS" style="ellipse;shape=cloud;whiteSpace=wrap;html=1;" parent="1" vertex="1">
          <mxGeometry x="1760" y="327.75" width="120" height="80" as="geometry" />
        </mxCell>
        <mxCell id="otNfWIO8C421rpofp8Mj-99" style="edgeStyle=orthogonalEdgeStyle;rounded=0;orthogonalLoop=1;jettySize=auto;html=1;exitX=0.875;exitY=0.5;exitDx=0;exitDy=0;exitPerimeter=0;entryX=0;entryY=0.5;entryDx=0;entryDy=0;" parent="1" source="otNfWIO8C421rpofp8Mj-97" target="otNfWIO8C421rpofp8Mj-19" edge="1">
          <mxGeometry relative="1" as="geometry" />
        </mxCell>
        <mxCell id="otNfWIO8C421rpofp8Mj-97" value="WEBPS" style="ellipse;shape=cloud;whiteSpace=wrap;html=1;" parent="1" vertex="1">
          <mxGeometry x="1760" y="719.75" width="120" height="80" as="geometry" />
        </mxCell>
        <mxCell id="otNfWIO8C421rpofp8Mj-103" value="" style="edgeStyle=none;rounded=0;html=1;startSize=10;endSize=10;jettySize=auto;orthogonalLoop=1;fontSize=14;endArrow=none;endFill=0;strokeWidth=2;exitX=0.83;exitY=0.552;exitDx=0;exitDy=0;exitPerimeter=0;entryX=0.013;entryY=0.554;entryDx=0;entryDy=0;entryPerimeter=0;" parent="1" source="otNfWIO8C421rpofp8Mj-1" target="otNfWIO8C421rpofp8Mj-75" edge="1">
          <mxGeometry relative="1" as="geometry">
            <mxPoint x="364" y="547" as="sourcePoint" />
            <mxPoint x="641" y="547" as="targetPoint" />
          </mxGeometry>
        </mxCell>
        <mxCell id="otNfWIO8C421rpofp8Mj-75" value="https://&lt;br&gt;LPS" style="ellipse;shape=cloud;whiteSpace=wrap;html=1;" parent="1" vertex="1">
          <mxGeometry x="440" y="497.75" width="120" height="80" as="geometry" />
        </mxCell>
        <mxCell id="u5oiCscIOgwdw_EkdSBx-2" style="edgeStyle=orthogonalEdgeStyle;rounded=0;orthogonalLoop=1;jettySize=auto;html=1;exitX=1;exitY=0.25;exitDx=0;exitDy=0;entryX=0;entryY=0.5;entryDx=0;entryDy=0;dashed=1" parent="1" source="otNfWIO8C421rpofp8Mj-19" target="aG5nzeYbMwQF4hwIKUs0-1" edge="1">
          <mxGeometry relative="1" as="geometry">
            <Array as="points">
              <mxPoint x="2140" y="683" />
              <mxPoint x="2140" y="580" />
              <mxPoint x="1960" y="580" />
              <mxPoint x="1960" y="385" />
            </Array>
            <mxPoint x="2000" y="320" as="targetPoint" />
          </mxGeometry>
        </mxCell>
        <mxCell id="1ymfPKmcFopbmhQbIeXV-5" style="edgeStyle=orthogonalEdgeStyle;rounded=0;orthogonalLoop=1;jettySize=auto;html=1;exitX=1;exitY=0.5;exitDx=0;exitDy=0;entryX=0;entryY=0.5;entryDx=0;entryDy=0;" parent="1" source="1ymfPKmcFopbmhQbIeXV-1" target="otNfWIO8C421rpofp8Mj-60" edge="1">
          <mxGeometry relative="1" as="geometry">
            <Array as="points">
              <mxPoint x="2280" y="444" />
              <mxPoint x="2280" y="509" />
              <mxPoint x="2270" y="509" />
              <mxPoint x="2270" y="582" />
            </Array>
          </mxGeometry>
        </mxCell>
        <mxCell id="1ymfPKmcFopbmhQbIeXV-1" value="Plain Component&lt;br style=&quot;border-color: var(--border-color);&quot;&gt;(Spring)" style="shape=hexagon;perimeter=hexagonPerimeter2;whiteSpace=wrap;html=1;fixedSize=1;fillColor=#f8cecc;strokeColor=#b85450;" parent="1" vertex="1">
          <mxGeometry x="2180" y="421.5" width="90" height="44.25" as="geometry" />
        </mxCell>
        <mxCell id="1ymfPKmcFopbmhQbIeXV-2" value="REST WS" style="rounded=0;whiteSpace=wrap;html=1;fillColor=#d5e8d4;strokeColor=#82b366;" parent="1" vertex="1">
          <mxGeometry x="2000" y="407.75" width="120" height="30" as="geometry" />
        </mxCell>
        <mxCell id="1ymfPKmcFopbmhQbIeXV-3" style="edgeStyle=orthogonalEdgeStyle;rounded=0;orthogonalLoop=1;jettySize=auto;html=1;exitX=1;exitY=0.5;exitDx=0;exitDy=0;entryX=0.267;entryY=0.237;entryDx=0;entryDy=0;entryPerimeter=0;" parent="1" source="1ymfPKmcFopbmhQbIeXV-2" target="1ymfPKmcFopbmhQbIeXV-1" edge="1">
          <mxGeometry relative="1" as="geometry" />
        </mxCell>
        <mxCell id="wATVp7rB9urVUvGR0uSH-1" style="edgeStyle=orthogonalEdgeStyle;rounded=0;orthogonalLoop=1;jettySize=auto;html=1;exitX=0;exitY=0.75;exitDx=0;exitDy=0;entryX=0;entryY=0.5;entryDx=0;entryDy=0;" parent="1" source="1ymfPKmcFopbmhQbIeXV-1" target="1ymfPKmcFopbmhQbIeXV-1" edge="1">
          <mxGeometry relative="1" as="geometry" />
        </mxCell>
        <mxCell id="wATVp7rB9urVUvGR0uSH-6" style="edgeStyle=orthogonalEdgeStyle;rounded=0;orthogonalLoop=1;jettySize=auto;html=1;exitX=1;exitY=0.25;exitDx=0;exitDy=0;entryX=0.111;entryY=0.93;entryDx=0;entryDy=0;entryPerimeter=0;dashed=1" parent="1" source="otNfWIO8C421rpofp8Mj-19" target="1ymfPKmcFopbmhQbIeXV-1" edge="1">
          <mxGeometry relative="1" as="geometry" />
        </mxCell>
        <mxCell id="aG5nzeYbMwQF4hwIKUs0-5" style="edgeStyle=orthogonalEdgeStyle;rounded=0;orthogonalLoop=1;jettySize=auto;html=1;exitX=1;exitY=0.5;exitDx=0;exitDy=0;entryX=0;entryY=0.75;entryDx=0;entryDy=0;" edge="1" parent="1" source="aG5nzeYbMwQF4hwIKUs0-1" target="aG5nzeYbMwQF4hwIKUs0-2">
          <mxGeometry relative="1" as="geometry" />
        </mxCell>
        <mxCell id="aG5nzeYbMwQF4hwIKUs0-1" value="REST WS" style="rounded=0;whiteSpace=wrap;html=1;fillColor=#d5e8d4;strokeColor=#82b366;" vertex="1" parent="1">
          <mxGeometry x="2000" y="370.25" width="120" height="30" as="geometry" />
        </mxCell>
        <mxCell id="aG5nzeYbMwQF4hwIKUs0-6" style="edgeStyle=orthogonalEdgeStyle;rounded=0;orthogonalLoop=1;jettySize=auto;html=1;exitX=1;exitY=0.5;exitDx=0;exitDy=0;entryX=0;entryY=0.25;entryDx=0;entryDy=0;" edge="1" parent="1" source="aG5nzeYbMwQF4hwIKUs0-2" target="otNfWIO8C421rpofp8Mj-34">
          <mxGeometry relative="1" as="geometry" />
        </mxCell>
        <mxCell id="aG5nzeYbMwQF4hwIKUs0-2" value="Plain Component&lt;br style=&quot;border-color: var(--border-color);&quot;&gt;(Spring)" style="shape=hexagon;perimeter=hexagonPerimeter2;whiteSpace=wrap;html=1;fixedSize=1;fillColor=#f8cecc;strokeColor=#b85450;" vertex="1" parent="1">
          <mxGeometry x="2160" y="345.63" width="80" height="44.25" as="geometry" />
        </mxCell>
      </root>
    </mxGraphModel>
  </diagram>
</mxfile>
